<svg width="30" height="30" viewBox="0 0 30 30" fill="none" xmlns="http://www.w3.org/2000/svg">
<path d="M14.6301 6.09574C14.6315 5.60811 14.5354 5.12512 14.3474 4.67518C14.1595 4.22523 13.8835 3.81741 13.5356 3.4757C13.1877 3.134 12.775 2.8653 12.3218 2.68543C11.8685 2.50555 11.3839 2.41812 10.8964 2.42828C10.4089 2.43845 9.92829 2.54599 9.48294 2.7446C9.03759 2.94321 8.63645 3.22886 8.30312 3.58477C7.96978 3.94067 7.71098 4.35964 7.54194 4.81703C7.37289 5.27442 7.29701 5.76099 7.31877 6.24813C6.60215 6.43239 5.93686 6.77731 5.37328 7.25676C4.80969 7.7362 4.3626 8.33761 4.06587 9.01543C3.76913 9.69325 3.63053 10.4297 3.66055 11.169C3.69058 11.9084 3.88845 12.6311 4.23918 13.2827C3.6225 13.7837 3.13758 14.4277 2.82659 15.1589C2.5156 15.89 2.38796 16.6861 2.45478 17.4778C2.52159 18.2695 2.78084 19.0329 3.20997 19.7016C3.6391 20.3702 4.22511 20.9239 4.91703 21.3145C4.83159 21.9755 4.88258 22.6471 5.06685 23.2877C5.25112 23.9283 5.56476 24.5243 5.98841 25.0389C6.41205 25.5536 6.9367 25.9759 7.52995 26.2798C8.1232 26.5837 8.77246 26.7628 9.43763 26.806C10.1028 26.8491 10.7698 26.7555 11.3973 26.5308C12.0249 26.3061 12.5997 25.9551 13.0863 25.4995C13.5729 25.044 13.9609 24.4935 14.2265 23.8821C14.492 23.2707 14.6293 22.6113 14.6301 21.9448V6.09574Z" stroke="#0092B8" stroke-width="2.43831" stroke-linecap="round" stroke-linejoin="round"/>
<path d="M14.6328 6.09574C14.6314 5.60811 14.7275 5.12512 14.9154 4.67518C15.1034 4.22523 15.3794 3.81741 15.7273 3.4757C16.0752 3.134 16.4879 2.8653 16.9411 2.68543C17.3943 2.50555 17.879 2.41812 18.3665 2.42828C18.854 2.43845 19.3346 2.54599 19.7799 2.7446C20.2253 2.94321 20.6264 3.22886 20.9598 3.58477C21.2931 3.94067 21.5519 4.35964 21.7209 4.81703C21.89 5.27442 21.9659 5.76099 21.9441 6.24813C22.6607 6.43239 23.326 6.77731 23.8896 7.25676C24.4532 7.7362 24.9003 8.33761 25.197 9.01543C25.4938 9.69325 25.6324 10.4297 25.6023 11.169C25.5723 11.9084 25.3744 12.6311 25.0237 13.2827C25.6404 13.7837 26.1253 14.4277 26.4363 15.1589C26.7473 15.89 26.8749 16.6861 26.8081 17.4778C26.7413 18.2695 26.482 19.0329 26.0529 19.7016C25.6238 20.3702 25.0378 20.9239 24.3458 21.3145C24.4313 21.9755 24.3803 22.6471 24.196 23.2877C24.0118 23.9283 23.6981 24.5243 23.2745 25.0389C22.8508 25.5536 22.3262 25.9759 21.7329 26.2798C21.1397 26.5837 20.4904 26.7628 19.8252 26.806C19.1601 26.8491 18.4931 26.7555 17.8656 26.5308C17.238 26.3061 16.6632 25.9551 16.1766 25.4995C15.69 25.044 15.3019 24.4935 15.0364 23.8821C14.7709 23.2707 14.6335 22.6113 14.6328 21.9448V6.09574Z" stroke="#0092B8" stroke-width="2.43831" stroke-linecap="round" stroke-linejoin="round"/>
<path d="M18.2876 15.849C17.264 15.489 16.3703 14.8335 15.7192 13.9654C15.0682 13.0974 14.6892 12.0558 14.6301 10.9724C14.5711 12.0558 14.192 13.0974 13.541 13.9654C12.89 14.8335 11.9962 15.489 10.9727 15.849" stroke="#0092B8" stroke-width="2.43831" stroke-linecap="round" stroke-linejoin="round"/>
<path d="M21.457 7.92463C21.7521 7.4133 21.919 6.83814 21.9435 6.24829" stroke="#0092B8" stroke-width="2.43831" stroke-linecap="round" stroke-linejoin="round"/>
<path d="M7.32031 6.24829C7.34442 6.83804 7.5109 7.41319 7.80554 7.92463" stroke="#0092B8" stroke-width="2.43831" stroke-linecap="round" stroke-linejoin="round"/>
<path d="M4.23828 13.2838C4.46131 13.1022 4.69998 12.9406 4.95149 12.801" stroke="#0092B8" stroke-width="2.43831" stroke-linecap="round" stroke-linejoin="round"/>
<path d="M24.3086 12.801C24.5601 12.9406 24.7988 13.1022 25.0218 13.2838" stroke="#0092B8" stroke-width="2.43831" stroke-linecap="round" stroke-linejoin="round"/>
<path d="M7.31214 21.9448C6.47194 21.9452 5.64588 21.7285 4.91406 21.3157" stroke="#0092B8" stroke-width="2.43831" stroke-linecap="round" stroke-linejoin="round"/>
<path d="M24.3434 21.3157C23.6116 21.7285 22.7855 21.9452 21.9453 21.9448" stroke="#0092B8" stroke-width="2.43831" stroke-linecap="round" stroke-linejoin="round"/>
</svg>
