<svg width="31" height="31" viewBox="0 0 31 31" fill="none" xmlns="http://www.w3.org/2000/svg">
<path d="M20.5306 25.6626V5.13265C20.5306 4.45204 20.2602 3.79931 19.779 3.31804C19.2977 2.83678 18.645 2.56641 17.9644 2.56641H12.8319C12.1513 2.56641 11.4985 2.83678 11.0173 3.31804C10.536 3.79931 10.2656 4.45204 10.2656 5.13265V25.6626" stroke="black" stroke-width="2.56624" stroke-linecap="round" stroke-linejoin="round"/>
<path d="M25.6626 7.69873H5.13265C3.71535 7.69873 2.56641 8.84768 2.56641 10.265V23.0962C2.56641 24.5135 3.71535 25.6624 5.13265 25.6624H25.6626C27.0799 25.6624 28.2288 24.5135 28.2288 23.0962V10.265C28.2288 8.84768 27.0799 7.69873 25.6626 7.69873Z" stroke="black" stroke-width="2.56624" stroke-linecap="round" stroke-linejoin="round"/>
</svg>
