<svg width="31" height="31" viewBox="0 0 31 31" fill="none" xmlns="http://www.w3.org/2000/svg">
<path d="M15.3984 8.98193V26.9456" stroke="black" stroke-width="2.56624" stroke-linecap="round" stroke-linejoin="round"/>
<path d="M3.84953 23.0962C3.50922 23.0962 3.18286 22.961 2.94222 22.7204C2.70159 22.4797 2.56641 22.1534 2.56641 21.8131V5.13249C2.56641 4.79218 2.70159 4.46581 2.94222 4.22518C3.18286 3.98455 3.50922 3.84937 3.84953 3.84937H10.2651C11.6264 3.84937 12.9318 4.39011 13.8944 5.35264C14.8569 6.31516 15.3976 7.62063 15.3976 8.98185C15.3976 7.62063 15.9384 6.31516 16.9009 5.35264C17.8634 4.39011 19.1689 3.84937 20.5301 3.84937H26.9457C27.286 3.84937 27.6124 3.98455 27.853 4.22518C28.0937 4.46581 28.2288 4.79218 28.2288 5.13249V21.8131C28.2288 22.1534 28.0937 22.4797 27.853 22.7204C27.6124 22.961 27.286 23.0962 26.9457 23.0962H19.247C18.2261 23.0962 17.247 23.5017 16.5251 24.2236C15.8032 24.9455 15.3976 25.9246 15.3976 26.9456C15.3976 25.9246 14.9921 24.9455 14.2702 24.2236C13.5483 23.5017 12.5692 23.0962 11.5483 23.0962H3.84953Z" stroke="black" stroke-width="2.56624" stroke-linecap="round" stroke-linejoin="round"/>
</svg>
