<svg width="30" height="30" viewBox="0 0 30 30" fill="none" xmlns="http://www.w3.org/2000/svg">
<path d="M15.6446 2.65787C15.3269 2.51297 14.9818 2.43799 14.6327 2.43799C14.2835 2.43799 13.9384 2.51297 13.6208 2.65787L3.1726 7.41258C2.95626 7.50798 2.77232 7.66422 2.64319 7.86228C2.51406 8.06034 2.44531 8.29167 2.44531 8.52811C2.44531 8.76455 2.51406 8.99589 2.64319 9.19395C2.77232 9.39201 2.95626 9.54825 3.1726 9.64364L13.633 14.4105C13.9506 14.5554 14.2957 14.6304 14.6449 14.6304C14.994 14.6304 15.3391 14.5554 15.6568 14.4105L26.1171 9.65583C26.3335 9.56044 26.5174 9.4042 26.6465 9.20614C26.7757 9.00808 26.8444 8.77674 26.8444 8.5403C26.8444 8.30387 26.7757 8.07253 26.6465 7.87447C26.5174 7.67641 26.3335 7.52017 26.1171 7.42478L15.6446 2.65787Z" stroke="#4F39F6" stroke-width="2.43831" stroke-linecap="round" stroke-linejoin="round"/>
<path d="M2.4375 14.6299C2.43693 14.8631 2.50324 15.0915 2.62857 15.2882C2.7539 15.4848 2.93299 15.6414 3.14461 15.7393L13.6294 20.5062C13.9454 20.6493 14.2883 20.7233 14.6352 20.7233C14.9821 20.7233 15.325 20.6493 15.641 20.5062L26.1013 15.7515C26.3171 15.6545 26.5001 15.4968 26.6278 15.2977C26.7555 15.0985 26.8225 14.8665 26.8206 14.6299" stroke="#4F39F6" stroke-width="2.43831" stroke-linecap="round" stroke-linejoin="round"/>
<path d="M2.4375 20.7256C2.43693 20.9588 2.50324 21.1872 2.62857 21.3839C2.7539 21.5805 2.93299 21.7371 3.14461 21.835L13.6294 26.6019C13.9454 26.745 14.2883 26.819 14.6352 26.819C14.9821 26.819 15.325 26.745 15.641 26.6019L26.1013 21.8472C26.3171 21.7502 26.5001 21.5925 26.6278 21.3934C26.7555 21.1942 26.8225 20.9622 26.8206 20.7256" stroke="#4F39F6" stroke-width="2.43831" stroke-linecap="round" stroke-linejoin="round"/>
</svg>
