<svg width="30" height="30" viewBox="0 0 30 30" fill="none" xmlns="http://www.w3.org/2000/svg">
<path d="M16.4572 8.5341C16.7939 8.5341 17.0668 8.26118 17.0668 7.92452C17.0668 7.58786 16.7939 7.31494 16.4572 7.31494C16.1206 7.31494 15.8477 7.58786 15.8477 7.92452C15.8477 8.26118 16.1206 8.5341 16.4572 8.5341Z" fill="#9810FA" stroke="#9810FA" stroke-width="2.43831" stroke-linecap="round" stroke-linejoin="round"/>
<path d="M21.3361 13.4106C21.6728 13.4106 21.9457 13.1376 21.9457 12.801C21.9457 12.4643 21.6728 12.1914 21.3361 12.1914C20.9995 12.1914 20.7266 12.4643 20.7266 12.801C20.7266 13.1376 20.9995 13.4106 21.3361 13.4106Z" fill="#9810FA" stroke="#9810FA" stroke-width="2.43831" stroke-linecap="round" stroke-linejoin="round"/>
<path d="M10.3635 9.75309C10.7001 9.75309 10.9731 9.48017 10.9731 9.14351C10.9731 8.80685 10.7001 8.53394 10.3635 8.53394C10.0268 8.53394 9.75391 8.80685 9.75391 9.14351C9.75391 9.48017 10.0268 9.75309 10.3635 9.75309Z" fill="#9810FA" stroke="#9810FA" stroke-width="2.43831" stroke-linecap="round" stroke-linejoin="round"/>
<path d="M7.92208 15.849C8.25874 15.849 8.53165 15.5761 8.53165 15.2395C8.53165 14.9028 8.25874 14.6299 7.92208 14.6299C7.58542 14.6299 7.3125 14.9028 7.3125 15.2395C7.3125 15.5761 7.58542 15.849 7.92208 15.849Z" fill="#9810FA" stroke="#9810FA" stroke-width="2.43831" stroke-linecap="round" stroke-linejoin="round"/>
<path d="M14.629 2.43823C7.9237 2.43823 2.4375 7.92443 2.4375 14.6298C2.4375 21.3351 7.9237 26.8213 14.629 26.8213C15.758 26.8213 16.6382 25.9118 16.6382 24.7634C16.6382 24.2306 16.4188 23.7454 16.1054 23.3918C15.7519 23.0395 15.5715 22.597 15.5715 22.0203C15.5668 21.752 15.6163 21.4855 15.7168 21.2367C15.8174 20.9878 15.967 20.7618 16.1568 20.5721C16.3465 20.3823 16.5726 20.2327 16.8214 20.1321C17.0702 20.0316 17.3367 19.9821 17.605 19.9867H20.0384C23.7581 19.9867 26.8108 16.9352 26.8108 13.2156C26.7779 7.32948 21.2869 2.43823 14.629 2.43823Z" stroke="#9810FA" stroke-width="2.43831" stroke-linecap="round" stroke-linejoin="round"/>
</svg>
