<svg width="36" height="36" viewBox="0 0 36 36" fill="none" xmlns="http://www.w3.org/2000/svg">
<path d="M22.282 2.9707H8.91242C8.12446 2.9707 7.36877 3.28372 6.81159 3.84089C6.25442 4.39806 5.94141 5.15375 5.94141 5.94171V29.7098C5.94141 30.4978 6.25442 31.2534 6.81159 31.8106C7.36877 32.3678 8.12446 32.6808 8.91242 32.6808H26.7385C27.5264 32.6808 28.2821 32.3678 28.8393 31.8106C29.3965 31.2534 29.7095 30.4978 29.7095 29.7098V10.3982L22.282 2.9707Z" stroke="white" stroke-width="2.97101" stroke-linecap="round" stroke-linejoin="round"/>
<path d="M20.7969 2.9707V8.91272C20.7969 9.70069 21.1099 10.4564 21.6671 11.0135C22.2242 11.5707 22.9799 11.8837 23.7679 11.8837H29.7099" stroke="white" stroke-width="2.97101" stroke-linecap="round" stroke-linejoin="round"/>
<path d="M13.3711 22.2825L16.3421 25.2535L22.2841 19.3115" stroke="white" stroke-width="2.97101" stroke-linecap="round" stroke-linejoin="round"/>
</svg>
