<svg width="36" height="36" viewBox="0 0 36 36" fill="none" xmlns="http://www.w3.org/2000/svg">
<path d="M19.0595 3.23814C18.6724 3.06158 18.2519 2.97021 17.8265 2.97021C17.4011 2.97021 16.9806 3.06158 16.5935 3.23814L3.86273 9.03161C3.59913 9.14784 3.37501 9.33821 3.21767 9.57954C3.06033 9.82088 2.97656 10.1028 2.97656 10.3908C2.97656 10.6789 3.06033 10.9608 3.21767 11.2021C3.37501 11.4435 3.59913 11.6338 3.86273 11.7501L16.6084 17.5584C16.9954 17.735 17.4159 17.8263 17.8413 17.8263C18.2668 17.8263 18.6872 17.735 19.0743 17.5584L31.8199 11.7649C32.0835 11.6487 32.3077 11.4583 32.465 11.217C32.6223 10.9757 32.7061 10.6938 32.7061 10.4057C32.7061 10.1176 32.6223 9.83573 32.465 9.5944C32.3077 9.35307 32.0835 9.16269 31.8199 9.04646L19.0595 3.23814Z" stroke="white" stroke-width="2.97101" stroke-linecap="round" stroke-linejoin="round"/>
<path d="M2.97266 17.8257C2.97196 18.1098 3.05275 18.3882 3.20547 18.6278C3.35818 18.8674 3.5764 19.0582 3.83425 19.1775L16.6096 24.9858C16.9946 25.1602 17.4125 25.2504 17.8351 25.2504C18.2578 25.2504 18.6756 25.1602 19.0607 24.9858L31.8063 19.1923C32.0693 19.0742 32.2921 18.882 32.4478 18.6393C32.6034 18.3967 32.685 18.114 32.6828 17.8257" stroke="white" stroke-width="2.97101" stroke-linecap="round" stroke-linejoin="round"/>
<path d="M2.97266 25.2534C2.97196 25.5375 3.05275 25.8159 3.20547 26.0555C3.35818 26.2951 3.5764 26.4859 3.83425 26.6052L16.6096 32.4136C16.9946 32.5879 17.4125 32.6781 17.8351 32.6781C18.2578 32.6781 18.6756 32.5879 19.0607 32.4136L31.8063 26.6201C32.0693 26.5019 32.2921 26.3098 32.4478 26.0671C32.6034 25.8244 32.685 25.5417 32.6828 25.2534" stroke="white" stroke-width="2.97101" stroke-linecap="round" stroke-linejoin="round"/>
</svg>
