<svg width="30" height="30" viewBox="0 0 30 30" fill="none" xmlns="http://www.w3.org/2000/svg">
<path d="M21.8436 4.85498H7.27899C5.93836 4.85498 4.85156 5.94178 4.85156 7.28241V21.847C4.85156 23.1876 5.93836 24.2744 7.27899 24.2744H21.8436C23.1842 24.2744 24.271 23.1876 24.271 21.847V7.28241C24.271 5.94178 23.1842 4.85498 21.8436 4.85498Z" stroke="#009689" stroke-width="2.42743" stroke-linecap="round" stroke-linejoin="round"/>
<path d="M16.9904 10.9236H12.1356C11.4653 10.9236 10.9219 11.467 10.9219 12.1373V16.9922C10.9219 17.6625 11.4653 18.2059 12.1356 18.2059H16.9904C17.6608 18.2059 18.2042 17.6625 18.2042 16.9922V12.1373C18.2042 11.467 17.6608 10.9236 16.9904 10.9236Z" stroke="#009689" stroke-width="2.42743" stroke-linecap="round" stroke-linejoin="round"/>
<path d="M18.2031 2.42749V4.85492" stroke="#009689" stroke-width="2.42743" stroke-linecap="round" stroke-linejoin="round"/>
<path d="M18.2031 24.2744V26.7018" stroke="#009689" stroke-width="2.42743" stroke-linecap="round" stroke-linejoin="round"/>
<path d="M2.42578 18.2058H4.85321" stroke="#009689" stroke-width="2.42743" stroke-linecap="round" stroke-linejoin="round"/>
<path d="M2.42578 10.9236H4.85321" stroke="#009689" stroke-width="2.42743" stroke-linecap="round" stroke-linejoin="round"/>
<path d="M24.2734 18.2058H26.7009" stroke="#009689" stroke-width="2.42743" stroke-linecap="round" stroke-linejoin="round"/>
<path d="M24.2734 10.9236H26.7009" stroke="#009689" stroke-width="2.42743" stroke-linecap="round" stroke-linejoin="round"/>
<path d="M10.9219 2.42749V4.85492" stroke="#009689" stroke-width="2.42743" stroke-linecap="round" stroke-linejoin="round"/>
<path d="M10.9219 24.2744V26.7018" stroke="#009689" stroke-width="2.42743" stroke-linecap="round" stroke-linejoin="round"/>
</svg>
