<svg width="31" height="31" viewBox="0 0 31 31" fill="none" xmlns="http://www.w3.org/2000/svg">
<path d="M19.8586 16.5396L21.8025 27.4794C21.8243 27.6083 21.8062 27.7407 21.7507 27.8589C21.6952 27.9772 21.6049 28.0757 21.4919 28.1413C21.3789 28.2068 21.2486 28.2364 21.1183 28.2259C20.9881 28.2153 20.8642 28.1653 20.7632 28.0825L16.1696 24.6348C15.9478 24.4691 15.6785 24.3796 15.4017 24.3796C15.1248 24.3796 14.8555 24.4691 14.6337 24.6348L10.0324 28.0812C9.93147 28.1639 9.8077 28.2138 9.67764 28.2244C9.54757 28.2349 9.41739 28.2055 9.30446 28.1401C9.19154 28.0747 9.10123 27.9764 9.0456 27.8584C8.98997 27.7404 8.97165 27.6082 8.9931 27.4794L10.9357 16.5396" stroke="black" stroke-width="2.56624" stroke-linecap="round" stroke-linejoin="round"/>
<path d="M15.3979 17.9639C19.6498 17.9639 23.0967 14.517 23.0967 10.2651C23.0967 6.01325 19.6498 2.56641 15.3979 2.56641C11.1461 2.56641 7.69922 6.01325 7.69922 10.2651C7.69922 14.517 11.1461 17.9639 15.3979 17.9639Z" stroke="black" stroke-width="2.56624" stroke-linecap="round" stroke-linejoin="round"/>
</svg>
