<svg width="30" height="30" viewBox="0 0 30 30" fill="none" xmlns="http://www.w3.org/2000/svg">
<path d="M14.9353 9.9563C21.1214 9.9563 26.1362 8.28469 26.1362 6.22266C26.1362 4.16062 21.1214 2.48901 14.9353 2.48901C8.7492 2.48901 3.73438 4.16062 3.73438 6.22266C3.73438 8.28469 8.7492 9.9563 14.9353 9.9563Z" stroke="#A65F00" stroke-width="2.48909" stroke-linecap="round" stroke-linejoin="round"/>
<path d="M3.73438 6.22266V23.6463C3.73438 24.6365 4.91447 25.5862 7.01505 26.2864C9.11563 26.9866 11.9646 27.38 14.9353 27.38C17.906 27.38 20.755 26.9866 22.8556 26.2864C24.9561 25.5862 26.1362 24.6365 26.1362 23.6463V6.22266" stroke="#A65F00" stroke-width="2.48909" stroke-linecap="round" stroke-linejoin="round"/>
<path d="M3.73438 14.9346C3.73438 15.9248 4.91447 16.8745 7.01505 17.5747C9.11563 18.2748 11.9646 18.6682 14.9353 18.6682C17.906 18.6682 20.755 18.2748 22.8556 17.5747C24.9561 16.8745 26.1362 15.9248 26.1362 14.9346" stroke="#A65F00" stroke-width="2.48909" stroke-linecap="round" stroke-linejoin="round"/>
</svg>
