<svg width="20" height="20" viewBox="0 0 20 20" fill="none" xmlns="http://www.w3.org/2000/svg">
<path d="M10.4896 2.15502C10.1771 1.84244 9.75329 1.66678 9.3113 1.66669H3.33464C2.89261 1.66669 2.46868 1.84228 2.15612 2.15484C1.84356 2.4674 1.66797 2.89133 1.66797 3.33335V9.31002C1.66806 9.75201 1.84372 10.1759 2.1563 10.4884L9.40964 17.7417C9.7884 18.1181 10.3007 18.3293 10.8346 18.3293C11.3686 18.3293 11.8809 18.1181 12.2596 17.7417L17.743 12.2584C18.1193 11.8796 18.3306 11.3673 18.3306 10.8334C18.3306 10.2994 18.1193 9.78712 17.743 9.40835L10.4896 2.15502Z" stroke="#6346FA" stroke-width="1.66667" stroke-linecap="round" stroke-linejoin="round"/>
<path d="M6.2487 6.66665C6.47882 6.66665 6.66536 6.4801 6.66536 6.24998C6.66536 6.01986 6.47882 5.83331 6.2487 5.83331C6.01858 5.83331 5.83203 6.01986 5.83203 6.24998C5.83203 6.4801 6.01858 6.66665 6.2487 6.66665Z" fill="#6346FA" stroke="#6346FA" stroke-width="1.66667" stroke-linecap="round" stroke-linejoin="round"/>
</svg>
