<svg width="30" height="30" viewBox="0 0 30 30" fill="none" xmlns="http://www.w3.org/2000/svg">
<path d="M19.9141 16.1791L26.4143 20.5126C26.508 20.575 26.6169 20.6108 26.7293 20.6161C26.8418 20.6215 26.9536 20.5963 27.0528 20.5432C27.152 20.49 27.235 20.411 27.2928 20.3144C27.3507 20.2179 27.3813 20.1074 27.3813 19.9949V9.79458C27.3814 9.68509 27.3525 9.57752 27.2977 9.48275C27.2429 9.38798 27.164 9.30936 27.069 9.25482C26.9741 9.20027 26.8665 9.17175 26.757 9.17212C26.6475 9.17249 26.54 9.20175 26.4454 9.25693L19.9141 13.0677" stroke="#E7000B" stroke-width="2.48909" stroke-linecap="round" stroke-linejoin="round"/>
<path d="M17.4268 7.46704H4.98128C3.60659 7.46704 2.49219 8.58145 2.49219 9.95614V19.9125C2.49219 21.2872 3.60659 22.4016 4.98128 22.4016H17.4268C18.8014 22.4016 19.9159 21.2872 19.9159 19.9125V9.95614C19.9159 8.58145 18.8014 7.46704 17.4268 7.46704Z" stroke="#E7000B" stroke-width="2.48909" stroke-linecap="round" stroke-linejoin="round"/>
</svg>
